<svg version="1.1" xmlns="http://www.w3.org/2000/svg" xmlns:xlink="http://www.w3.org/1999/xlink" width="1440" height="669" viewBox="0 0 1440 669"><defs/><g><rect fill="rgb(38,68,223)" stroke="none" x="0" y="0" width="1440" height="669" transform="matrix(1 0 0 1 0 0)" fill-opacity="1"/><path fill="none" stroke="rgb(0,0,0)" paint-order="fill stroke markers" d=" M 115.53558274286775 199.93156168259 L 222.3461229610467 39.08004280537472" stroke-opacity="1" stroke-linecap="round" stroke-miterlimit="10" stroke-width="2" stroke-dasharray=""/><path fill="none" stroke="rgb(0,0,0)" paint-order="fill stroke markers" d=" M 237.81698837331518 343.06085301363606 L 370.612446885326 403.6094575008287" stroke-opacity="1" stroke-linecap="round" stroke-miterlimit="10" stroke-width="2" stroke-dasharray=""/><path fill="none" stroke="rgb(0,0,0)" paint-order="fill stroke markers" d=" M 14.918838804724835 427.81882660593993 L -126.26983204672067 832.6926896366987" stroke-opacity="1" stroke-linecap="round" stroke-miterlimit="10" stroke-width="2" stroke-dasharray=""/><path fill="none" stroke="rgb(0,0,0)" paint-order="fill stroke markers" d=" M -77.89324209307426 326.89002137987313 L -433.0310118372905 469.7387385129586" stroke-opacity="1" stroke-linecap="round" stroke-miterlimit="10" stroke-width="2" stroke-dasharray=""/><path fill="none" stroke="rgb(0,0,0)" paint-order="fill stroke markers" d=" M 6.8438476532145245 227.07499874701995 L -268.3287502726501 55.83239901018604" stroke-opacity="1" stroke-linecap="round" stroke-miterlimit="10" stroke-width="2" stroke-dasharray=""/><path fill="none" stroke="rgb(0,0,0)" paint-order="fill stroke markers" d=" M 90.47468451513672 160.54044352237526 L 161.31696352883102 -226.72321652819682" stroke-opacity="1" stroke-linecap="round" stroke-miterlimit="10" stroke-width="2" stroke-dasharray=""/><path fill="none" stroke="rgb(0,0,0)" paint-order="fill stroke markers" d=" M 252.71941639563653 235.05039129307312 L 576.1456361650824 178.18612564577015" stroke-opacity="1" stroke-linecap="round" stroke-miterlimit="10" stroke-width="2" stroke-dasharray=""/><path fill="none" stroke="rgb(0,0,0)" paint-order="fill stroke markers" d=" M 96.43212979770993 321.52036070874715 L 264.2069586874438 681.1891836376194" stroke-opacity="1" stroke-linecap="round" stroke-miterlimit="10" stroke-width="2" stroke-dasharray=""/><path fill="none" stroke="rgb(0,0,0)" paint-order="fill stroke markers" d=" M -37.2436314212739 368.4542347778524 L -285.945939971725 601.5571163993234" stroke-opacity="1" stroke-linecap="round" stroke-miterlimit="10" stroke-width="2" stroke-dasharray=""/><path fill="none" stroke="rgb(0,0,0)" paint-order="fill stroke markers" d=" M -38.59500411165887 166.29908739210956 L -353.5650268787326 -123.10980486412217" stroke-opacity="1" stroke-linecap="round" stroke-miterlimit="10" stroke-width="2" stroke-dasharray=""/><path fill="none" stroke="rgb(0,0,0)" paint-order="fill stroke markers" d=" M 94.88739860528457 211.2054181812128 L 186.52441740156144 -2.834177646836281" stroke-opacity="1" stroke-linecap="round" stroke-miterlimit="10" stroke-width="2" stroke-dasharray=""/><path fill="none" stroke="rgb(0,0,0)" paint-order="fill stroke markers" d=" M 148.3584169869194 282.08492020086317 L 525.5574543655434 355.63887334937556" stroke-opacity="1" stroke-linecap="round" stroke-miterlimit="10" stroke-width="2" stroke-dasharray=""/><path fill="none" stroke="rgb(0,0,0)" paint-order="fill stroke markers" d=" M 161.71014730861071 413.7991946663577 L 339.7470023320494 701.9220531758261" stroke-opacity="1" stroke-linecap="round" stroke-miterlimit="10" stroke-width="2" stroke-dasharray=""/><path fill="none" stroke="rgb(0,0,0)" paint-order="fill stroke markers" d=" M 18.860687366995293 319.2742112671217 L -258.3930556466661 597.2452853952079" stroke-opacity="1" stroke-linecap="round" stroke-miterlimit="10" stroke-width="2" stroke-dasharray=""/><path fill="none" stroke="rgb(0,0,0)" paint-order="fill stroke markers" d=" M -16.729695460544917 190.89314151846767 L -331.2069106237893 -81.92067351249102" stroke-opacity="1" stroke-linecap="round" stroke-miterlimit="10" stroke-width="2" stroke-dasharray=""/><path fill="none" stroke="rgb(0,0,0)" paint-order="fill stroke markers" d=" M 100.9706877031051 205.48282949297632 L 226.1129727215373 -51.38145608428982" stroke-opacity="1" stroke-linecap="round" stroke-miterlimit="10" stroke-width="2" stroke-dasharray=""/><path fill="none" stroke="rgb(0,0,0)" paint-order="fill stroke markers" d=" M 164.03990823150798 250.11379570692537 L 330.0884091255604 219.97695483989838" stroke-opacity="1" stroke-linecap="round" stroke-miterlimit="10" stroke-width="2" stroke-dasharray=""/><path fill="none" stroke="rgb(0,0,0)" paint-order="fill stroke markers" d=" M 130.58371078797114 316.607869990225 L 352.0377975840919 500.9848649994685" stroke-opacity="1" stroke-linecap="round" stroke-miterlimit="10" stroke-width="2" stroke-dasharray=""/><path fill="none" stroke="rgb(0,0,0)" paint-order="fill stroke markers" d=" M -51.40719283397567 424.23049641741864 L -209.51147630517858 627.3134558446004" stroke-opacity="1" stroke-linecap="round" stroke-miterlimit="10" stroke-width="2" stroke-dasharray=""/><path fill="none" stroke="rgb(0,0,0)" paint-order="fill stroke markers" d=" M -16.47786779788406 225.0643317800621 L -406.36384868320533 38.15843718523112" stroke-opacity="1" stroke-linecap="round" stroke-miterlimit="10" stroke-width="2" stroke-dasharray=""/><path fill="none" stroke="rgb(0,0,0)" paint-order="fill stroke markers" d=" M 77.91282092843018 163.3564995997014 L 90.75827547954532 -29.234613014704394" stroke-opacity="1" stroke-linecap="round" stroke-miterlimit="10" stroke-width="2" stroke-dasharray=""/><path fill="none" stroke="rgb(0,0,0)" paint-order="fill stroke markers" d=" M 261.36152931593404 215.39593184314668 L 360.73256710195113 188.4579794892535" stroke-opacity="1" stroke-linecap="round" stroke-miterlimit="10" stroke-width="2" stroke-dasharray=""/><path fill="none" stroke="rgb(0,0,0)" paint-order="fill stroke markers" d=" M 178.27393540778613 410.46928736679547 L 372.0589903780441 669.6394542226323" stroke-opacity="1" stroke-linecap="round" stroke-miterlimit="10" stroke-width="2" stroke-dasharray=""/><path fill="rgb(255,255,255)" stroke="rgb(0,0,0)" paint-order="fill stroke markers" d=" M 856.75 95.75395141658373 L 856.75 90.74383190297522 L 856.75 85.75453718937933 C 872.7694647230926 82.05939840768627 872.6687413234613 61.6709128427444 856.7427139282227 65.75 C 875.9228846305348 60.837438565554514 845.8730491285575 60.65509756254544 826.7405067682266 65.75 C 842.5720033623929 61.5341499019278 832.5770817506163 61.479103882685 816.7597029805875 65.74761712571853 C 835.7488105976176 60.623174035927484 840.3559805093774 58.72494028305798 821.3709441777319 63.864446150138974 C 847.5399734353083 56.78013632551456 856.5168613192368 44.87945978840774 830.4288060271938 52.256377102195984 C 841.0282458112471 49.25917436001661 842.5842339647321 44.46140375194028 832.0005897491174 47.513914707004005 C 839.426491425586 45.372152781068905 836.0678799447584 25.92730160806513 828.6965685257455 28.25 C 850.7980518854822 21.285828098833704 830.739363724762 21.11467144453514 808.6925421085907 28.25 C 827.3308879490401 22.217805263846294 813.8646141183191 40.46401937223178 795.1263385526254 46.178241788904415 C 818.9606527976124 38.909986379422044 809.0790228247714 56.13675273061869 785.1197175958077 62.98173375116312 C 792.9363131639925 60.74859519400594 787.0939593771724 72.08748847145824 779.25 74.22252368927002 C 803.5752077105783 67.60148287998008 803.781287121087 93.41240392671182 779.25 99.22358829341829 C 802.9148589086365 93.61765096728548 816.4283369085997 95.29090782132468 792.7291725128889 100.75 C 800.6488773376246 98.92569944896637 802.2335601231375 127.71432033095881 794.25 129.2350322601851 C 812.5335323294694 125.75237724250212 812.6202992869894 146.23486300842345 794.25 149.22627480244046 C 805.5253982324588 147.39019370610774 805.5491360395006 157.53457927605146 794.25 159.21842126795673 C 807.0264061100582 157.31443064083774 807.06281571458 172.57688499957948 794.2503102868795 174.2204902023077 C 798.970868993644 173.61493066565004 801.5865207525235 203.62991819497844 796.8450824470783 204.04118410908268 C 819.8354173122915 202.04703371108087 821.3015762445824 206.98965457586144 798.2983776384463 208.82948796808705 C 802.8798956327607 208.4630506765891 815.4772813969176 223.44819870278926 810.8889770507812 223.71661376953125 C 814.5360552538231 223.50326028087107 819.159203693588 225.42820507539219 815.5115170575154 225.6308903862664 C 835.6952081480177 224.5093747212935 840.5228598390128 225.81621765589588 820.3369220215827 226.8965406883508 C 848.0430891160437 225.41374555027474 857.9704106331201 226.67665155091967 830.2609438025461 228.09644887906643 C 833.5373577194374 227.92856965737124 848.5331243231556 228.08601213086615 845.25651333516 228.25 C 872.5655921777052 226.88323486864806 884.0209713335662 207.7637809643504 856.75 209.75072753545828 C 869.8566850077749 208.79578234790876 869.8435604748848 198.6305872253659 856.75 199.75120593607426 C 872.7546976839697 198.3814361382955 864.2410650584844 191.73264421141943 848.2496846094728 193.25 C 870.9245676466703 191.09847436144852 855.3856143374996 181.7673810431146 832.7421725810855 184.22785432031378 C 857.6346769534055 181.52299423457583 856.8416509576748 176.4221205113015 831.9673080421635 179.289193327073 C 847.7484529632836 177.47022300255927 847.4928231710684 162.17478252595112 831.75 164.30003702067188 C 848.118192182983 162.09035876732864 848.0210310379679 131.47420714432656 831.75 134.31215398735367 C 837.1862341380609 133.36398152833334 837.1534320034199 108.18267693598303 831.75 109.3027640755754 C 848.6924069573357 105.79074206166993 855.0982198428319 97.08557425910071 838.1881211996078 100.75 C 842.1053146034913 99.90114248330993 847.1074520793776 99.90639572500632 843.1891239825636 100.75 L 856.75 95.75395141658373 L 856.75 95.75395141658373 Z" fill-opacity="1" stroke-opacity="1" stroke-linecap="round" stroke-miterlimit="10" stroke-width="2" stroke-dasharray=""/><path fill="rgb(255,255,255)" stroke="none" paint-order="stroke fill markers" d=" M 852.836641558508 101.57164987304557 L 867.1969794703907 98.5331545125662 L 867.183369070141 93.48010703010702 L 852.8417399101282 96.60571609647786 Z" fill-opacity="1"/><path fill="none" stroke="rgb(0,0,0)" paint-order="fill stroke markers" d=" M 852.836641558508 101.57164987304557 L 867.1969794703907 98.5331545125662" stroke-opacity="1" stroke-linecap="round" stroke-miterlimit="10" stroke-width="2" stroke-dasharray=""/><path fill="none" stroke="rgb(0,0,0)" paint-order="fill stroke markers" d=" M 852.8417399101282 96.60571609647786 L 867.183369070141 93.48010703010702" stroke-opacity="1" stroke-linecap="round" stroke-miterlimit="10" stroke-width="2" stroke-dasharray=""/><path fill="rgb(255,255,255)" stroke="none" paint-order="stroke fill markers" d=" M 834.2788559614961 101.59713947971437 L 843.2247760188103 99.65855470704749 L 848.2272377689467 99.66530922804722 L 839.2787263480722 101.5918968702658 Z" fill-opacity="1"/><path fill="none" stroke="rgb(0,0,0)" paint-order="fill stroke markers" d=" M 834.2788559614961 101.59713947971437 L 843.2247760188103 99.65855470704749" stroke-opacity="1" stroke-linecap="round" stroke-miterlimit="10" stroke-width="2" stroke-dasharray=""/><path fill="none" stroke="rgb(0,0,0)" paint-order="fill stroke markers" d=" M 839.2787263480722 101.5918968702658 L 848.2272377689467 99.66530922804722" stroke-opacity="1" stroke-linecap="round" stroke-miterlimit="10" stroke-width="2" stroke-dasharray=""/><path fill="rgb(255,255,255)" stroke="rgb(0,0,0)" paint-order="fill stroke markers" d=" M 724.761414823628 63.411034078384546 L 719.7757378088099 63.93630397663583 L 714.8811062737659 64.88431795008364 L 710.0899021508812 66.33080210004118 L 705.507900756551 68.33067280915566 L 701.2412398438901 70.91186122782528 L 697.3741577567707 74.07446518124198 C 716.9074014329199 68.05815458429436 706.5770477617069 85.29603018892593 686.9255772661418 90.91415345855057 C 711.5529203775228 83.87348698861366 709.1131378602297 93.8721620608419 684.3928182617346 100.57908475421209 C 702.098566698509 95.77530034031902 700.5912256473446 116.20366493758664 682.75 120.47690022271127 C 691.5719117482494 118.36392293572284 691.6334197510075 138.63876089792663 682.75 140.47605603933334 C 708.2305319907352 135.2060970664134 708.3478603349205 150.80242550125286 682.75 155.4692793002323 C 708.988139334461 150.68569353841235 709.7183241677541 181.94194923969948 683.2810831912425 185.46259378653076 C 690.0459387181264 184.5617187011924 698.9884145719249 213.20474680227053 692.1887407395807 213.78722598020613 C 694.8974895605047 213.55518694048916 714.6550760927806 228.1332997980069 711.9413498684298 228.29716642084531 C 716.8488433617688 228.00083056421434 726.631235602357 230.04002290769816 721.7225966891565 230.31673818899435 C 740.7490246536152 229.24415911782083 765.547343471232 227.5284823035182 746.5214065654145 228.60973704062053 L 779.0474674720207 225.32238228506043 L 755.6947046692658 224.73483547291835 C 778.5220795880032 223.32573627866088 789.498777784214 212.96188534890845 766.6923647962976 214.67715000617318 C 793.3127197390127 212.67503972161091 801.9868283288289 188.6559396476391 775.443303136155 191.50076182372868 C 786.7690659899948 190.28691471435422 787.4257028429254 185.25534362258514 776.1085090759939 186.54664307200937 C 789.5460366996876 185.01341209802 787.2061966984822 162.54819755632266 773.8230575645575 164.5 C 796.343242161641 161.21564713713306 771.3124395938471 161.0971073033481 748.8098617568612 164.5 C 757.9438282825689 163.11874011915617 748.3992217136373 173.6647098729888 739.2478660345078 174.9256272315979 C 757.2034601708099 172.45161997798004 757.1430030786104 177.58298788396758 739.1697462320153 179.9252327483846 C 758.4439881310864 177.4134456811351 757.3333254071582 187.61623173495343 738.0248326212168 189.8495211005211 C 754.2738583418736 187.97010064315631 738.561988819799 190.14815516096738 722.3119630813599 192.0189094543457 C 737.1730602202197 190.30805300868047 735.0183605607708 159.89204807106034 720.25 162.2742244489491 C 742.71916654491 158.64988730239318 754.912268024578 150.6839696527811 732.4748622617917 154.5 C 747.4848089813277 151.9471909632758 772.508725618303 152.03771352066332 757.4836638948036 154.5 C 769.2155118977659 152.57740086217768 774.2084700838133 152.5909182132151 762.474414870856 154.5 L 790.666167026303 150.75539320497364 L 772.4801569200354 154.5 L 785.9919754052004 152.28600346716124 L 776.75 148.76732005551457 C 786.4110882200986 147.14882008889415 786.3289247638353 116.75848712485012 776.7423677518932 118.77196481165493 C 795.702762051291 114.78968725285027 790.7665809778881 84.54927072654857 771.9864647696086 89.30976668259245 C 789.2543980546759 84.93258788022926 778.0114905057125 68.11367512639123 760.8630046513535 72.93764103715876 C 780.9337056874236 67.29163949361148 762.9295547283868 58.494844203298115 742.9665256679 64.5104775231739 L 724.761414823628 63.411034078384546 M 734.2579736709595 129.5 L 729.2492298334837 129.5 L 724.2561947759241 129.5 L 720.25 128.49247931316495 L 720.25 123.49819722166285 L 720.2548847049475 118.50122171640396 L 734.7175431706104 110.113496767043 L 720.6848042637575 108.50347867887467 C 728.8807164415276 106.50401130530403 742.2336554003547 96.93987625780694 734.0557557940483 99.01178461313248 C 754.1036141384227 93.93256779588755 759.49411829235 123.14811821238665 739.25 127.37786315008998 L 734.2579736709595 129.5 Z" fill-opacity="1" stroke-opacity="1" stroke-linecap="round" stroke-miterlimit="10" stroke-width="2" stroke-dasharray=""/><path fill="rgb(255,255,255)" stroke="none" paint-order="stroke fill markers" d=" M 725.9230767012883 64.43195637639201 L 736.5470807537116 61.14594647246824 L 731.5599699410536 61.29388434342935 L 720.9423135134429 64.60034698193094 Z" fill-opacity="1"/><path fill="none" stroke="rgb(0,0,0)" paint-order="fill stroke markers" d=" M 725.9230767012883 64.43195637639201 L 736.5470807537116 61.14594647246824" stroke-opacity="1" stroke-linecap="round" stroke-miterlimit="10" stroke-width="2" stroke-dasharray=""/><path fill="none" stroke="rgb(0,0,0)" paint-order="fill stroke markers" d=" M 720.9423135134429 64.60034698193094 L 731.5599699410536 61.29388434342935" stroke-opacity="1" stroke-linecap="round" stroke-miterlimit="10" stroke-width="2" stroke-dasharray=""/><path fill="rgb(255,255,255)" stroke="none" paint-order="stroke fill markers" d=" M 747.2276783169101 227.19538242855586 L 755.8440943132109 226.6881965286488 L 760.3172364484678 224.44949360471446 L 751.7023037703052 224.98128031863124 Z" fill-opacity="1"/><path fill="none" stroke="rgb(0,0,0)" paint-order="fill stroke markers" d=" M 747.2276783169101 227.19538242855586 L 755.8440943132109 226.6881965286488" stroke-opacity="1" stroke-linecap="round" stroke-miterlimit="10" stroke-width="2" stroke-dasharray=""/><path fill="none" stroke="rgb(0,0,0)" paint-order="fill stroke markers" d=" M 751.7023037703052 224.98128031863124 L 760.3172364484678 224.44949360471446" stroke-opacity="1" stroke-linecap="round" stroke-miterlimit="10" stroke-width="2" stroke-dasharray=""/><path fill="rgb(255,255,255)" stroke="none" paint-order="stroke fill markers" d=" M 772.8005095306602 154.40245487172066 L 778.2317504749542 153.53106137880815 L 778.230074569561 148.5193665551577 L 772.8049765259404 149.42822079626123 Z" fill-opacity="1"/><path fill="none" stroke="rgb(0,0,0)" paint-order="fill stroke markers" d=" M 772.8005095306602 154.40245487172066 L 778.2317504749542 153.53106137880815" stroke-opacity="1" stroke-linecap="round" stroke-miterlimit="10" stroke-width="2" stroke-dasharray=""/><path fill="none" stroke="rgb(0,0,0)" paint-order="fill stroke markers" d=" M 772.8049765259404 149.42822079626123 L 778.230074569561 148.5193665551577" stroke-opacity="1" stroke-linecap="round" stroke-miterlimit="10" stroke-width="2" stroke-dasharray=""/><path fill="rgb(38,68,223)" stroke="none" paint-order="stroke fill markers" d=" M 735.3286181321139 130.3061607561546 L 743.7069632473199 128.5822125036654 L 738.7170306304492 128.57559297246533 L 730.3412535755615 130.3119751808433 Z" fill-opacity="1"/><path fill="none" stroke="rgb(0,0,0)" paint-order="fill stroke markers" d=" M 735.3286181321139 130.3061607561546 L 743.7069632473199 128.5822125036654" stroke-opacity="1" stroke-linecap="round" stroke-miterlimit="10" stroke-width="2" stroke-dasharray=""/><path fill="none" stroke="rgb(0,0,0)" paint-order="fill stroke markers" d=" M 730.3412535755615 130.3119751808433 L 738.7170306304492 128.57559297246533" stroke-opacity="1" stroke-linecap="round" stroke-miterlimit="10" stroke-width="2" stroke-dasharray=""/><path fill="rgb(255,255,255)" stroke="rgb(0,0,0)" paint-order="fill stroke markers" d=" M 659.5670802746899 120.4927841599565 L 663.4941815030179 117.41015812885598 C 687.3915409671492 111.37667740452403 695.6451675559191 98.69513920702569 671.8466544360272 105.10742836855934 C 700.5673167514435 97.36891164907246 703.6594081340277 71.73533442425891 675.2374149071366 80.50752832684157 C 691.9322017049382 75.35483175895867 690.8622750118741 60.006764271695126 674.289995125409 65.54081590764736 C 683.7434875326604 62.38397113552042 671.60811474432 35.171393844885 662.3100706394762 38.760344030335546 C 689.6533730619631 28.206108193909273 661.5045088589268 17.44384274136329 634.5069274500238 28.853429917424364 C 651.7088695927498 21.58362839326754 621.5798274483567 20.622050110417064 604.5336780836369 28.25 C 611.6749438569761 25.05436817126758 590.3608427033539 28.694350307434505 583.25 31.957118408055976 C 592.7299309449884 27.607308185307907 592.833591490669 42.85923066986015 583.25 46.97562640346587 C 589.4763055573817 44.30127017099438 589.5197580848773 54.387481612877984 583.25 56.95831721811555 C 586.492293629126 55.62885541248429 586.5142066880544 65.68545508567527 583.25 66.96016735429293 C 603.5975080382824 59.01421888628864 603.9817829352279 90.09239145424618 583.25 96.97369632692426 L 583.25 101.95924137239854 L 583.25 106.97232601002906 L 583.25 111.96344875531577 L 583.25 116.97375525470488 C 608.2530237856204 109.65094458445809 608.4426895291274 125.32526001995072 583.25 131.96628018447154 C 599.3411266585337 127.72451407666362 599.4520072151702 143.17813634568773 583.25 146.9744370521512 C 595.3076376250473 144.1492057319609 595.4264615300502 169.71446607661952 583.25 171.97330244004843 C 592.4925793970954 170.25872596949378 592.5233423878643 180.41813003165802 583.25 181.95766481282772 C 606.0968496387235 178.16469371483407 606.1961377002938 193.83566299249514 583.25 196.97252971006674 C 587.2751245662716 196.42227243143742 587.2969501606523 221.60609434072921 583.25 221.9619106471073 C 609.4100961004897 219.6618603871676 618.159793706759 226.30207825400154 591.9711232545087 228.25 C 619.419740239113 226.20836302498134 649.4199706689843 226.30736818515774 621.9633913559337 228.23897589155968 C 646.0053309422227 226.54759273518624 665.9141167050959 224.84921549769948 641.8730224745555 226.5525722573666 C 648.1533543670319 226.10759892631026 674.3075499430843 212.63768561133423 668.0368794354436 213.2027177605196 C 678.5370756129788 212.25657517403997 687.3841820755933 188.86855006515825 676.9251355992451 190.19431488829377 C 681.6082847895615 189.6006896020827 682.1137188860096 184.58931030012462 677.4354428523343 185.22019116996398 C 682.4191077958118 184.54812760383467 682.5072521283431 159.36187948340535 677.5546158366778 160.2336474962649 C 693.5799707806755 157.4128484284213 692.1014168609921 147.26247138146806 676.1238905641658 150.34265999525087 C 687.6623611643959 148.1182439559322 671.5655756494556 123.08372893308987 660.1381746161205 125.82212922006147 L 659.5670802746899 120.4927841599565 M 637.75 87.74413776770234 L 637.6970279403031 92.75742648169398 L 637.2353365123272 97.72951486706734 L 635.5539574925788 102.3848170931451 C 648.1246002866392 98.71941251075282 633.2943332584108 98.70804241198744 620.75 102.46250031032832 C 628.5577200634141 100.12568769093579 628.4762853125385 79.87817841647691 620.75 82.47157408163184 C 636.4492590988198 77.20197959397413 636.405633752422 72.05678440421184 620.75 77.45460749563063 C 638.0465543858993 71.49102006489221 637.9976626002232 66.35265569744135 620.75 72.45620413235156 C 639.2194840932938 65.92028136158935 647.4425561524935 59.63784400000236 629.0072407643311 66.26953124208376 L 637.75 87.74413776770234 M 620.75 185.7469310760498 L 620.75 180.74963645782555 L 620.75 175.74900320701272 L 620.75 170.7542700007907 L 620.75 165.74973222174594 C 630.2125830161771 164.00695993568522 633.3881234038143 141.96273018061189 623.9957326190197 144.05096578149823 C 641.4208540729072 140.1767914840782 651.247702719931 142.0122289297286 633.7973471097648 145.7711081840098 C 639.4895322989215 144.5449877944297 645.2737810227123 152.29784359017557 639.5638195350184 153.4383185993065 C 654.0729464363008 150.5403486793894 653.6285813527172 181.11540666298356 638.9910501926206 183.2731079007499 L 620.75 185.7469310760498 Z" fill-opacity="1" stroke-opacity="1" stroke-linecap="round" stroke-miterlimit="10" stroke-width="2" stroke-dasharray=""/><path fill="rgb(255,255,255)" stroke="none" paint-order="stroke fill markers" d=" M 673.8017480140215 165.88429311912014 L 685.7418508027272 163.88142577892415 L 685.538791752522 158.82826483487503 L 673.6151788667122 160.92707114719437 Z" fill-opacity="1"/><path fill="none" stroke="rgb(0,0,0)" paint-order="fill stroke markers" d=" M 673.8017480140215 165.88429311912014 L 685.7418508027272 163.88142577892415" stroke-opacity="1" stroke-linecap="round" stroke-miterlimit="10" stroke-width="2" stroke-dasharray=""/><path fill="none" stroke="rgb(0,0,0)" paint-order="fill stroke markers" d=" M 673.6151788667122 160.92707114719437 L 685.538791752522 158.82826483487503" stroke-opacity="1" stroke-linecap="round" stroke-miterlimit="10" stroke-width="2" stroke-dasharray=""/><path fill="rgb(38,68,223)" stroke="none" paint-order="stroke fill markers" d=" M 633.9459650668227 83.99154841588715 L 642.1418937222999 81.32712890565105 L 642.1531505347774 86.35147690197647 L 633.936214988472 88.95038976701433 Z" fill-opacity="1"/><path fill="none" stroke="rgb(0,0,0)" paint-order="fill stroke markers" d=" M 633.9459650668227 83.99154841588715 L 642.1418937222999 81.32712890565105" stroke-opacity="1" stroke-linecap="round" stroke-miterlimit="10" stroke-width="2" stroke-dasharray=""/><path fill="none" stroke="rgb(0,0,0)" paint-order="fill stroke markers" d=" M 633.936214988472 88.95038976701433 L 642.1531505347774 86.35147690197647" stroke-opacity="1" stroke-linecap="round" stroke-miterlimit="10" stroke-width="2" stroke-dasharray=""/><path fill="rgb(255,255,255)" stroke="rgb(0,0,0)" paint-order="fill stroke markers" d=" M 906 308.25395141658373 L 906 303.2438319029752 L 906 298.25453718937933 L 906 293.24546281062067 L 906 288.2561680970248 L 906 283.24604858341627 C 934.9086054742562 283.8085044025942 909.9196156690452 278.6515415427635 881.0083273649216 278.25 C 899.1740353718886 278.50229890628805 892.6624687479576 273.3715424087127 874.4955549617007 273.23066794258193 C 902.9391107981486 273.4512321391463 911.465185731704 249.59524450941996 883.0268718360712 250.1841587301642 C 897.4830128446513 249.88479404039109 882.4009202545731 240.2739982886227 867.9495170545997 240.75 C 879.7980011981974 240.359733487362 864.7919019276163 240.35225244897657 852.9436665595276 240.75 C 863.6139284358079 240.39179724674446 855.9610834571567 253.57889051138483 845.2863709872472 253.76140463576303 C 858.4080397560014 253.53705293613078 843.0734213087666 277.961365768918 829.9511571385083 277.77506491550594 C 849.8067834347639 278.0569613989197 848.3470518464741 292.3798419905294 828.5 291.7318495158106 C 857.6067623744323 292.68216511572734 866.0555544443743 315.005196782368 836.9862235281616 313.25 C 863.2657243617107 314.8367477458711 869.772994864526 318.41288851565326 843.5 316.7218316514045 C 872.2810220386853 318.5743172599001 872.2398962236376 334.12590702528024 843.5 331.71814923523925 C 872.6064752917163 334.15661811762254 872.4912920223527 365.281274278152 843.5 361.72627480244046 C 869.5828311117054 364.92463004841204 869.493112404239 385.58513513661035 843.5 381.7248679668701 C 873.1272431299187 386.12484409153325 873.0991486119747 391.307656558763 843.5003102868795 386.7204902023077 C 865.8363923300991 390.1820897069346 865.9797915138852 400.4677115368369 843.6890308889983 396.7253562709834 C 861.4067381740771 399.69994992765464 865.1694324260764 424.8314569904198 847.5483776384463 421.32948796808705 C 856.1990396978421 423.04870120019956 864.5690891054239 435.35691838897 855.9412698745728 433.5265130996704 C 874.2021844930545 437.40059458083965 897.7623190496059 444.5152256802159 879.5109438025461 440.59644887906643 C 908.5422737868581 446.82980395006933 918.5470280551045 446.91578174067513 889.5012715384364 440.75 C 916.9768676534159 446.5824708720425 933.5216934756068 442.84474199005973 906 437.2338163461536 C 927.8681067083108 441.69212923384305 928.0096680544584 410.93935112937135 906 407.24270982365124 C 920.7513669663662 409.72028069426955 898.6500678566952 403.7762227373616 883.8922505690716 401.3373677395284 C 908.2630781760748 405.36485456581653 905.6308111671704 395.549346721746 881.2173080421635 391.789193327073 C 889.9067504420547 393.127536135578 889.7322979424398 362.8245105666404 881 361.80248153644425 C 894.0504389211198 363.329906221459 894.0761957460361 348.10059762741713 881 346.81215398735367 C 908.5875666753644 349.5304541350457 908.6036743023908 344.3630460957775 881 341.8135057905165 C 886.558356715684 342.3268886946333 886.5668597773315 327.22070992233483 881 326.8096580952406 C 899.8469952308876 328.201302960527 899.8551980701384 323.07846404031125 881 321.8027640755754 C 906.6195555205086 323.5361251334909 906.6297405604496 318.3712274316281 881 316.79561185999773 C 893.523573334061 317.56551185610033 899.9652534095706 313.95964332711395 887.4381211996078 313.25 L 906 308.25395141658373 L 906 308.25395141658373 Z" fill-opacity="1" stroke-opacity="1" stroke-linecap="round" stroke-miterlimit="10" stroke-width="2" stroke-dasharray=""/><path fill="rgb(255,255,255)" stroke="none" paint-order="stroke fill markers" d=" M 839.5119013149402 326.4160649740804 L 852.3879140430993 327.41154989442373 L 852.3833173710989 332.46237170685964 L 839.5139638890686 331.38420893765436 Z" fill-opacity="1"/><path fill="none" stroke="rgb(0,0,0)" paint-order="fill stroke markers" d=" M 839.5119013149402 326.4160649740804 L 852.3879140430993 327.41154989442373" stroke-opacity="1" stroke-linecap="round" stroke-miterlimit="10" stroke-width="2" stroke-dasharray=""/><path fill="none" stroke="rgb(0,0,0)" paint-order="fill stroke markers" d=" M 839.5139638890686 331.38420893765436 L 852.3833173710989 332.46237170685964" stroke-opacity="1" stroke-linecap="round" stroke-miterlimit="10" stroke-width="2" stroke-dasharray=""/><path fill="rgb(255,255,255)" stroke="rgb(0,0,0)" paint-order="fill stroke markers" d=" M 823.5 411.74216447002254 L 823.5 406.75663909944706 L 823.5 401.75300394557416 L 823.5 396.7489381511987 L 823.5 391.7513321819424 L 823.5 386.7427367400378 L 823.5 381.7504905895512 L 823.5 376.74099539476447 L 823.5 371.7448216574521 L 823.5 366.7543238872022 L 823.5 361.7462667465734 L 823.5 356.7533936451109 C 829.8453266486065 357.5102236789969 829.8667779733488 332.29485912809395 823.5 331.7470450941473 C 834.1645814737444 332.66465325041406 834.1665914887365 327.5953621795084 823.4961882358584 326.74813307262593 C 831.1356787282733 327.3547079652084 827.6420503367647 302.46226285950434 819.9869197181833 302.10348256953876 C 824.8417319695113 302.33101767429997 823.0044106470499 297.6525638323163 818.1483017369465 297.45462325346307 C 821.2271494035834 297.5801206219564 803.9714564845091 280.19168854950067 800.8905511011835 280.13623980875127 C 818.555551208217 280.45416648594625 809.0617540899568 277.36237739809565 791.395634362194 277.1143453076038 C 820.9132214713766 277.5287718455073 800.9906229765975 276.2798779234362 771.4725117534799 275.9046341051471 C 777.206681616839 275.9775287350908 757.8315439668916 280.4333846549421 752.0980073246355 280.32124536281844 C 768.4577130228012 280.6412164261971 753.6021044562808 293.95523465950237 737.2520129910736 293.30958685198493 L 761.8932130014335 298.95210259222534 L 733.0305392542468 302.3407221450216 C 739.8945097856904 302.7071367754352 736.4877369836607 322.5584431692683 729.6378231776471 321.9865760622488 C 739.1473128442731 322.78047865706844 738.9964329092379 332.9278573459176 729.5 331.9906076192856 C 744.8665367644264 333.5072068012509 754.1124842202324 334.26310978918457 738.745603470481 332.75 C 760.520778230365 334.894106577447 780.516822650081 334.8323577864467 758.7356561320048 332.75 C 772.1411949522853 334.03161768198953 784.8343999263668 313.0567020500141 771.3956794666592 312.18963379971683 C 781.2324996480482 312.82430690633726 794.348443529928 329.9483313412684 784.5282843692985 329.0937464752933 C 802.19950100752 330.631558037751 795.8224022939679 338.44104243219977 778.1699365174463 336.70115338823234 C 785.9265256014462 337.4656700589718 777.6331544875411 343.108720608662 769.8837987615552 342.2740675130626 C 783.1655552758483 343.70459407315826 774.4869609950799 348.79725061009424 761.2177845239639 347.2543902397156 C 786.5291070473248 350.19743923210586 770.0281672323914 362.0307614213773 744.7785770142691 358.5981561323715 C 768.7172677377554 361.85254860684165 761.81579929982 369.38667077826545 737.9179599415511 365.84474221616983 C 758.7734331285202 368.935757895434 753.4197220323213 377.6695752442772 732.608323790977 374.2945429448737 C 741.6382362165783 375.75894460322286 739.6506598906814 380.41991835445003 730.6316063778941 378.8900607256219 C 759.9089064324612 383.8562249441252 756.3693397558156 414.7277200393786 727.3405107574072 408.47071016952395 C 748.2698791870496 412.9819243435878 756.1575971005171 436.96700393145414 735.3774114444386 431.81206452474 C 739.517877598758 432.83918971478 760.8366467869246 444.26225084129464 756.704911581186 443.20054922561394 C 781.3914956252596 449.5440792100204 800.3596299902969 444.1129490561856 775.5908718630672 438.09826491959393 L 788.8800482866859 436.90563608601224 L 782.0512947040843 430.54326022669557 L 784.4131328162039 426.1352008060494 L 786.0198429822922 423.52670776844025 L 786.572801521048 428.4920499417931 L 787.8921636685263 433.32522045378573 L 790.2278165370226 437.7215037792921 L 794.0104973912239 440.75 L 799.0131819844246 440.75 L 804.0069364933297 440.75 L 809.0123103893129 440.75 C 833.2901244426562 446.4657179255495 843.3027304813409 446.39327376254073 819.0079749185825 440.75 C 842.5672923493366 446.22244353115235 847.3420127894474 433.03548590759385 823.6903309114277 427.977124478668 L 823.5 411.74216447002254 M 782.4642145931721 405.5145435035229 L 778.0583518291824 407.8237514910288 L 773.108850235818 408.1093614923302 L 768.5864205646794 406.1152077356819 L 765.7635693103075 402.04155622422695 L 764.6443390268832 397.203238254413 L 764.5867874878168 392.19232635205844 L 765.5821419295389 387.3188693425618 L 767.7039389175188 382.8067116275779 L 770.6933512371033 378.79374742880464 L 774.1583825687703 375.19067228626227 L 777.8036338090897 371.75926756858826 L 781.3828189841006 368.27683952776715 L 784.6901366291859 364.52677148854127 C 801.5083529120008 366.82500464614924 802.7822711248959 378.08151746743806 786 375.53403822851396 C 811.261155293798 379.3685769618755 811.2343639538976 384.54461188907374 786 380.5375518798828 L 782.4642145931721 405.5145435035229 Z" fill-opacity="1" stroke-opacity="1" stroke-linecap="round" stroke-miterlimit="10" stroke-width="2" stroke-dasharray=""/><path fill="rgb(255,255,255)" stroke="none" paint-order="stroke fill markers" d=" M 819.5418691363608 376.1637605497432 L 833.1978147396986 378.1552782421911 L 833.2068124372538 373.0959689499471 L 819.5381967559998 371.19335537939935 Z" fill-opacity="1"/><path fill="none" stroke="rgb(0,0,0)" paint-order="fill stroke markers" d=" M 819.5418691363608 376.1637605497432 L 833.1978147396986 378.1552782421911" stroke-opacity="1" stroke-linecap="round" stroke-miterlimit="10" stroke-width="2" stroke-dasharray=""/><path fill="none" stroke="rgb(0,0,0)" paint-order="fill stroke markers" d=" M 819.5381967559998 371.19335537939935 L 833.2068124372538 373.0959689499471" stroke-opacity="1" stroke-linecap="round" stroke-miterlimit="10" stroke-width="2" stroke-dasharray=""/><path fill="rgb(255,255,255)" stroke="none" paint-order="stroke fill markers" d=" M 726.0203969736914 316.70283982418374 L 736.3292934089932 317.48507718756235 L 735.9543807032763 322.5139157603531 L 725.651690321769 321.65379256612874 Z" fill-opacity="1"/><path fill="none" stroke="rgb(0,0,0)" paint-order="fill stroke markers" d=" M 726.0203969736914 316.70283982418374 L 736.3292934089932 317.48507718756235" stroke-opacity="1" stroke-linecap="round" stroke-miterlimit="10" stroke-width="2" stroke-dasharray=""/><path fill="none" stroke="rgb(0,0,0)" paint-order="fill stroke markers" d=" M 725.651690321769 321.65379256612874 L 735.9543807032763 322.5139157603531" stroke-opacity="1" stroke-linecap="round" stroke-miterlimit="10" stroke-width="2" stroke-dasharray=""/><path fill="rgb(255,255,255)" stroke="none" paint-order="stroke fill markers" d=" M 775.2658266942332 433.68346410198484 L 787.8115789904122 436.6527540678324 L 790.7173726577922 432.5364759798824 L 778.1530757090327 429.64666184022656 Z" fill-opacity="1"/><path fill="none" stroke="rgb(0,0,0)" paint-order="fill stroke markers" d=" M 775.2658266942332 433.68346410198484 L 787.8115789904122 436.6527540678324" stroke-opacity="1" stroke-linecap="round" stroke-miterlimit="10" stroke-width="2" stroke-dasharray=""/><path fill="none" stroke="rgb(0,0,0)" paint-order="fill stroke markers" d=" M 778.1530757090327 429.64666184022656 L 790.7173726577922 432.5364759798824" stroke-opacity="1" stroke-linecap="round" stroke-miterlimit="10" stroke-width="2" stroke-dasharray=""/><path fill="rgb(255,255,255)" stroke="none" paint-order="stroke fill markers" d=" M 778.1530757090327 429.64666184022656 L 791.2961797090265 432.6696027921196 L 793.6718533087859 428.2004674475225 L 780.5090799183298 425.26435583098123 Z" fill-opacity="1"/><path fill="none" stroke="rgb(0,0,0)" paint-order="fill stroke markers" d=" M 778.1530757090327 429.64666184022656 L 791.2961797090265 432.6696027921196" stroke-opacity="1" stroke-linecap="round" stroke-miterlimit="10" stroke-width="2" stroke-dasharray=""/><path fill="none" stroke="rgb(0,0,0)" paint-order="fill stroke markers" d=" M 780.5090799183298 425.26435583098123 L 793.6718533087859 428.2004674475225" stroke-opacity="1" stroke-linecap="round" stroke-miterlimit="10" stroke-width="2" stroke-dasharray=""/><path fill="rgb(38,68,223)" stroke="none" paint-order="stroke fill markers" d=" M 782.0412828195488 369.95478882904627 L 788.2001953099118 370.8465648063109 L 788.1979612012857 375.8676796341715 L 782.0453025555065 374.93373153813235 Z" fill-opacity="1"/><path fill="none" stroke="rgb(0,0,0)" paint-order="fill stroke markers" d=" M 782.0412828195488 369.95478882904627 L 788.2001953099118 370.8465648063109" stroke-opacity="1" stroke-linecap="round" stroke-miterlimit="10" stroke-width="2" stroke-dasharray=""/><path fill="none" stroke="rgb(0,0,0)" paint-order="fill stroke markers" d=" M 782.0453025555065 374.93373153813235 L 788.1979612012857 375.8676796341715" stroke-opacity="1" stroke-linecap="round" stroke-miterlimit="10" stroke-width="2" stroke-dasharray=""/><path fill="rgb(255,255,255)" stroke="rgb(0,0,0)" paint-order="fill stroke markers" d=" M 689.7625834984938 276.12849922076566 L 684.9254485145211 277.3111418001354 L 680.3429532420123 279.3356374001014 L 676.2020553732291 282.11695119319484 L 672.5646400628611 285.5323711694218 C 696.0684516978079 286.2564518950933 688.9979773440181 290.50163703197444 665.5 289.60804036213085 C 685.5582155371096 290.37082748821206 685.572549961541 264.5139794458885 665.5 264.59517534665065 C 693.173122476437 264.4832342075985 686.9954757012864 239.516543850053 659.3496292801574 240.75 C 664.9334178185335 240.5008718594559 639.923433807904 240.4898352722223 634.3401486113435 240.75 C 643.7675621021982 240.310710159315 637.4367662796702 259.27970804688067 628 259.4083271533891 C 647.7140772304653 259.1396326743828 647.7157244412513 269.49025612773454 628 269.4051237106323 C 631.8849785855157 269.4218990321966 631.8784566461142 299.6308740171251 628 299.40523256361485 C 631.1551525620303 299.5887935197123 631.1491027655408 314.6740554804686 628 314.4060366633057 C 650.2830797618906 316.3025402470823 650.2653282037909 321.49522599211167 628 319.4005829448288 C 656.3725597627922 322.06977265974314 656.2266666723013 348.3150726321227 628 344.39308209182127 C 634.9692082575117 345.36142770544535 634.9309753296624 365.6195200630193 628 364.40744005592205 C 654.396380365281 369.0236049358582 654.2208115536283 389.9335913883498 628 384.4066649317683 C 650.0372598106583 389.0517657910219 649.8196813236532 414.9822814339793 628 409.40381489833453 C 631.7195201584482 410.3547554013045 631.7030593338658 420.4070451672056 628 419.3938967974391 C 652.9127356806839 426.20996299180894 652.6735944005103 447.02968883199907 628 439.3931387718767 C 647.9323693113711 445.5622657175634 676.6639876288133 446.68450350325764 656.6605093860999 440.75 C 671.6826278260367 445.2066656571654 676.6779362741531 445.1720586158463 661.6455941811437 440.75 C 674.8183870879157 444.6250357068603 678.7444954582676 433.21909426571744 665.5 429.5967035151116 C 681.7988017873743 434.05445194551237 681.9921435526583 403.2806157394368 665.5 399.6020750217922 C 692.1246727769467 405.54065678293495 692.3429017749517 379.4462035520374 665.5 374.58836677899126 C 693.4975300556633 379.6551599371654 693.7129904710335 348.2809325148998 665.5 344.5983721546527 C 669.3876953867456 345.1058218324401 669.3991155857499 330.01233843630894 665.5 329.6017556254519 L 692.891986596917 327.2450391900547 L 665.820186605677 319.60929653793573 L 674.3050907002823 315.37172534675784 L 670.632082151249 311.42109190672636 L 675.5593716877047 310.75706782285124 L 680.3594908642117 311.9131180876866 L 683.312395302346 315.83022063877434 L 684.3065511538007 320.71777130209375 L 684.5 325.715362213552 L 684.5 330.7044351265067 C 695.4928815289412 331.845910771517 695.4621599410018 347.10578647011914 684.5 345.69956444448326 C 690.944675706663 346.52628517977314 690.9149858154415 366.73925153006616 684.5 365.70713277435243 C 700.376157687184 368.2614767104167 700.3110140508949 383.647152596312 684.5 380.71647169685457 C 708.043872366954 385.08049141266724 707.934789481629 400.61812585540105 684.5 395.70190412899865 C 694.333965196223 397.76490338880666 694.2467494792614 423.1559548626167 684.5 420.7138836075119 C 692.1254797374428 422.62446568544624 692.0797980695434 437.797290055013 684.5 435.71284136828035 C 692.4807995105831 437.90756567442713 712.4400038251283 442.939437559961 704.4577523395419 440.75 C 711.7986555980108 442.76352329567084 729.3752239802798 435.1759881183176 722 433.2920539493207 C 748.0889584181597 439.9562420918002 748.355212576451 408.81716661421524 722 403.2992027693799 C 744.9095433841052 408.09575038698983 745.0414940118364 387.4145183256935 722 383.29825778745 L 722 378.2802474590171 L 722 373.28398798207127 L 722 368.28622869660103 L 722 363.29068451329294 L 722 358.29219467405346 L 722 353.2855662450602 L 722 348.29535043915894 L 722 343.2843362863641 L 722 338.29195484166485 C 739.0000274575762 340.15365252186854 739.0263657476806 329.89478720606104 722 328.29175219801255 C 732.6755533221819 329.29685721921044 730.7183301730753 298.92306190408453 720.008097455393 298.4048052384496 C 728.6153360376039 298.82130027506787 719.9698967627565 280.97438380397176 711.3545843312168 280.788868754491 L 689.7625834984938 276.12849922076566 L 689.7625834984938 276.12849922076566 Z" fill-opacity="1" stroke-opacity="1" stroke-linecap="round" stroke-miterlimit="10" stroke-width="2" stroke-dasharray=""/><path fill="rgb(255,255,255)" stroke="none" paint-order="stroke fill markers" d=" M 690.7443513882866 275.6938932742767 L 702.0505698809337 275.8524990876101 L 697.069119337015 276.2362913020698 L 685.7630187194395 276.06949432140254 Z" fill-opacity="1"/><path fill="none" stroke="rgb(0,0,0)" paint-order="fill stroke markers" d=" M 690.7443513882866 275.6938932742767 L 702.0505698809337 275.8524990876101" stroke-opacity="1" stroke-linecap="round" stroke-miterlimit="10" stroke-width="2" stroke-dasharray=""/><path fill="none" stroke="rgb(0,0,0)" paint-order="fill stroke markers" d=" M 685.7630187194395 276.06949432140254 L 697.069119337015 276.2362913020698" stroke-opacity="1" stroke-linecap="round" stroke-miterlimit="10" stroke-width="2" stroke-dasharray=""/><path fill="rgb(255,255,255)" stroke="none" paint-order="stroke fill markers" d=" M 624.0333639273409 338.87950011660064 L 637.1897238272081 340.5894739348905 L 637.1788397746196 345.66844780130924 L 624.0380619004711 343.84258550191186 Z" fill-opacity="1"/><path fill="none" stroke="rgb(0,0,0)" paint-order="fill stroke markers" d=" M 624.0333639273409 338.87950011660064 L 637.1897238272081 340.5894739348905" stroke-opacity="1" stroke-linecap="round" stroke-miterlimit="10" stroke-width="2" stroke-dasharray=""/><path fill="none" stroke="rgb(0,0,0)" paint-order="fill stroke markers" d=" M 624.0380619004711 343.84258550191186 L 637.1788397746196 345.66844780130924" stroke-opacity="1" stroke-linecap="round" stroke-miterlimit="10" stroke-width="2" stroke-dasharray=""/><path fill="rgb(255,255,255)" stroke="none" paint-order="stroke fill markers" d=" M 661.5219930844954 324.2061087499161 L 672.5397492830083 325.2734406472092 L 672.8620310590045 320.23211750360133 L 661.8357406982387 319.2568893718643 Z" fill-opacity="1"/><path fill="none" stroke="rgb(0,0,0)" paint-order="fill stroke markers" d=" M 661.5219930844954 324.2061087499161 L 672.5397492830083 325.2734406472092" stroke-opacity="1" stroke-linecap="round" stroke-miterlimit="10" stroke-width="2" stroke-dasharray=""/><path fill="none" stroke="rgb(0,0,0)" paint-order="fill stroke markers" d=" M 661.8357406982387 319.2568893718643 L 672.8620310590045 320.23211750360133" stroke-opacity="1" stroke-linecap="round" stroke-miterlimit="10" stroke-width="2" stroke-dasharray=""/><path fill="rgb(255,255,255)" stroke="none" paint-order="stroke fill markers" d=" M 666.6430130451713 311.1255793571849 L 677.7575889211563 311.9489535747887 L 682.6857619429222 311.27286487494086 L 671.569807980461 310.4683094015996 Z" fill-opacity="1"/><path fill="none" stroke="rgb(0,0,0)" paint-order="fill stroke markers" d=" M 666.6430130451713 311.1255793571849 L 677.7575889211563 311.9489535747887" stroke-opacity="1" stroke-linecap="round" stroke-miterlimit="10" stroke-width="2" stroke-dasharray=""/><path fill="none" stroke="rgb(0,0,0)" paint-order="fill stroke markers" d=" M 671.569807980461 310.4683094015996 L 682.6857619429222 311.27286487494086" stroke-opacity="1" stroke-linecap="round" stroke-miterlimit="10" stroke-width="2" stroke-dasharray=""/><path fill="rgb(255,255,255)" stroke="rgb(0,0,0)" paint-order="fill stroke markers" d=" M 617.9921644700225 240.75 L 613.006639099447 240.75 L 608.0030039455742 240.75 L 602.9989381511987 240.75 L 598.0013321819424 240.75 L 592.9927367400378 240.75 L 604.1131049541574 239.93190381872054 L 582.9909953947645 240.75 C 591.4097835447063 240.31836508664458 561.414575469677 240.29158235663468 552.9972032029727 240.75 C 572.0391797337987 239.71295687897654 557.0371840981494 239.67974986864363 537.9970450941473 240.75 C 559.0814126840733 239.56484335918233 555.0974898220393 245.83168682344012 534 246.75422470306512 C 543.2990468330322 246.3476017815592 543.3056521418894 256.5425079867595 534 256.7485478308954 C 552.7555732385713 256.3332738309832 552.7591828103888 271.94257499923515 534 271.7501164612913 C 541.8455656729099 271.8306074994145 555.3409527418619 278.4351903335168 547.4971600319841 278.25 C 568.972216120438 278.75702165985393 581.2051864857605 292.05470475722876 559.75 291.00110244750977 C 574.6011594431222 291.7304000419009 574.5291300617281 322.6309014376559 559.75 320.99807370493363 C 584.7432186884643 323.75937429800416 584.6484020356239 339.5139848945381 559.75 335.99896889925003 C 589.2275069222696 340.1604371004922 588.9271391389005 371.920706538939 559.75 366.0100565229386 C 582.4868738952434 370.61604970866335 582.2362952114569 396.70602690008684 559.75 391.00101722276304 C 568.6872025467462 393.2684795387168 568.5945042466712 413.5979819208106 559.75 410.99227292968135 C 576.4930267874884 415.9249920761836 576.3976125239346 426.25276757921716 559.75 421.00703965663524 C 570.3431374365039 424.34497876102773 570.4750950989918 444.4685350531735 560.0094897523522 440.75 C 569.2361598123018 444.0283288596876 589.275936344858 443.9132064695641 580.0091674722498 440.75 C 595.5786676671983 446.0646403478475 612.8963136725466 443.0817449477127 597.25 437.99769077729434 C 621.9009763166256 446.0076860752492 622.1642858866234 425.1544397935233 597.25 418.0053827371212 C 619.4650622036659 424.3799080969188 619.6264259215305 408.7795053006922 597.25 402.99684801759963 C 609.9563344921144 406.2804992114901 610.0912445162281 380.70436771776116 597.25 377.99591046997716 L 597.25 372.9973679146981 L 597.25 367.99599699613464 L 597.25 362.9952110251254 L 597.25 357.997466882651 L 597.25 352.9899434770614 L 597.25 347.98973115964327 L 597.25 342.99962242464244 L 597.25 337.9946851121788 L 597.25 332.9960881371933 L 597.25 327.99898277723696 C 625.9042382129152 331.3203687786516 625.9865255887045 315.50995154612156 597.25 312.99816540422694 C 617.9173236307688 314.8046432585372 617.9708619727534 294.01686322154393 597.25 292.99338513035036 C 599.9403908898469 293.12627323781066 610.1941492718151 278.3064717164266 607.5010704882443 278.25 C 628.7032068165203 278.69459190636104 643.710989406386 278.68249887017816 622.5086029469967 278.25 C 651.9374539454433 278.8503071791871 652.434463384878 263.57830125807595 623 263.75152089446783 C 631.3884651207436 263.7021553986848 631.3811827637224 243.40246238941432 623 243.7553922906518 L 617.9921644700225 240.75 L 617.9921644700225 240.75 Z" fill-opacity="1" stroke-opacity="1" stroke-linecap="round" stroke-miterlimit="10" stroke-width="2" stroke-dasharray=""/><path fill="rgb(255,255,255)" stroke="none" paint-order="stroke fill markers" d=" M 584.0056365683772 240.95283330473484 L 602.0022928134435 240.0390774475706 L 596.9924436399613 240.03213968655243 L 578.9962423672478 240.95481271724606 Z" fill-opacity="1"/><path fill="none" stroke="rgb(0,0,0)" paint-order="fill stroke markers" d=" M 584.0056365683772 240.95283330473484 L 602.0022928134435 240.0390774475706" stroke-opacity="1" stroke-linecap="round" stroke-miterlimit="10" stroke-width="2" stroke-dasharray=""/><path fill="none" stroke="rgb(0,0,0)" paint-order="fill stroke markers" d=" M 578.9962423672478 240.95481271724606 L 596.9924436399613 240.03213968655243" stroke-opacity="1" stroke-linecap="round" stroke-miterlimit="10" stroke-width="2" stroke-dasharray=""/><path fill="rgb(255,255,255)" stroke="none" paint-order="stroke fill markers" d=" M 554.002535762465 240.96529466171054 L 571.1967943652141 240.03849319983772 L 566.1968612929993 240.03113478136245 L 549.0031220184517 240.96752124368558 Z" fill-opacity="1"/><path fill="none" stroke="rgb(0,0,0)" paint-order="fill stroke markers" d=" M 554.002535762465 240.96529466171054 L 571.1967943652141 240.03849319983772" stroke-opacity="1" stroke-linecap="round" stroke-miterlimit="10" stroke-width="2" stroke-dasharray=""/><path fill="none" stroke="rgb(0,0,0)" paint-order="fill stroke markers" d=" M 549.0031220184517 240.96752124368558 L 566.1968612929993 240.03113478136245" stroke-opacity="1" stroke-linecap="round" stroke-miterlimit="10" stroke-width="2" stroke-dasharray=""/><path fill="rgb(255,255,255)" stroke="rgb(0,0,0)" paint-order="fill stroke markers" d=" M 842.011414823628 488.41103407838455 L 837.0257378088099 488.9363039766358 L 832.1311062737659 489.88431795008364 L 827.3399021508812 491.3308021000412 C 835.4784201161492 493.7446906941272 822.7276492124643 501.60344897777964 814.6241577567707 499.074465181242 C 823.0880842578026 501.71593560090366 812.5714445176677 518.7645623568619 804.1755772661418 515.9141534585506 C 811.5124569798189 518.405034578414 808.1568647151329 533.1468611120955 800.8691301303879 530.515660376961 C 808.0223080948416 533.0982801060078 807.0549088391367 563.3136852416106 800 560.4735900094965 C 804.7280283466424 562.3769527702041 804.6587210220168 592.5458284989652 800 590.4786177490605 C 804.6433982487142 592.5390293363753 804.6300405076101 602.5878881266468 800.0104163462274 600.4747114154197 C 816.6006225145792 608.0636485420546 821.2058268176814 638.0079706236879 804.8527562106319 629.9206973414693 C 808.282824274893 631.6170086018349 827.9317608288554 653.26156868515 824.5233058718441 651.5222373126016 C 840.5860961352857 659.7190641412494 865.0842884482776 663.7868093502303 848.9527082525128 655.7262063024573 C 869.336019355979 665.9113076756905 884.2521173409672 663.5975369811423 863.7714065654145 653.6097370406205 C 880.7186636814586 661.8743825146282 889.9611480297237 657.8560757678899 872.9447046692658 649.7348354729183 C 899.3592017738746 662.3413757300821 907.2987181375191 655.8839503320621 880.7591485709672 643.5428903384054 C 889.7901641708663 647.7423670873602 899.5539926070285 630.243691350336 890.4324160770666 626.2447303179324 C 913.6115646708222 636.4066263110485 917.417287470517 611.1015884169601 893.9718619535452 601.5701099359248 C 907.4196983257281 607.0371791049258 904.5826096946414 594.8127346664587 891.0730575645575 589.5 C 894.5198533039627 590.8554787780242 864.4898089014689 590.8997315120718 861.0607455773279 589.5 C 867.9598198861989 592.3161777142656 863.3920435814138 592.7548300878476 856.5 589.9214895665646 L 877.3788895309553 603.6508845751639 L 856.4978660345078 599.9256272315979 C 861.7980703024473 602.1720672369255 860.537081315448 617.1834869656277 855.2748326212168 614.8495211005211 C 871.2023062679616 621.9138356110916 853.6054098398517 614.3473298834532 837.6797335732263 607.278964321129 C 849.3628183521956 612.4643211455949 849.2664760182262 597.2663134558668 837.5 592.2730742805288 C 845.1537432013371 595.5210280715954 862.4434799499666 582.5794884321733 854.7204145082505 579.5 C 871.6542093434255 586.2521667013262 901.7519678386191 586.0356653984369 884.7334414487705 579.5 C 911.228203250882 589.6748467513131 920.7499953870624 568.2577596683243 894 558.7742130661572 C 910.8285650002525 564.7403628960252 910.4762085575813 539.2934712454663 893.4924546973816 533.784601254596 C 921.8913773836508 542.9961085719538 913.3561901464205 513.8228193283458 884.7053178722526 505.42769010195843 C 899.4660690634563 509.75280846285494 892.9009393433947 502.1688834207042 878.1130046513535 497.93764103715876 C 904.7317631263652 505.55401353286953 896.349487339141 500.1071743537252 869.7048566762824 492.5818112671841 C 873.0240772740533 493.5192736954913 868.3762135368346 491.71713653556645 865.0564604953106 490.7815613518178 C 881.4841276095701 495.41121828314454 871.6946760947268 493.35438245402827 855.2707740618207 488.7113864242856 C 877.389994684413 494.9644347757635 872.4019797507383 494.5983478929053 850.2903158465815 488.3186302219874 L 842.011414823628 488.41103407838455 M 851.5079736709595 554.5 L 846.4992298334837 554.5 L 841.5061947759241 554.5 L 837.5 553.492479313165 L 837.5 548.4981972216628 C 854.1293948619247 554.6053657468018 858.4444281287173 530.1585341950067 841.6424929264467 524.5434425370768 C 862.5400301689201 531.5272563435742 877.1682744777723 544.5511918641854 856.3347940050298 537.3785487337736 C 861.9591015856597 539.3149103121623 862.090768554775 554.4090300291841 856.5 552.37786315009 L 851.5079736709595 554.5 Z" fill-opacity="1" stroke-opacity="1" stroke-linecap="round" stroke-miterlimit="10" stroke-width="2" stroke-dasharray=""/><path fill="rgb(255,255,255)" stroke="none" paint-order="stroke fill markers" d=" M 814.6665660886264 494.74059240052844 L 820.3071458937436 496.46796464620604 L 816.4370708732338 499.6402494386986 L 810.805787738306 497.8828065044012 Z" fill-opacity="1"/><path fill="none" stroke="rgb(0,0,0)" paint-order="fill stroke markers" d=" M 814.6665660886264 494.74059240052844 L 820.3071458937436 496.46796464620604" stroke-opacity="1" stroke-linecap="round" stroke-miterlimit="10" stroke-width="2" stroke-dasharray=""/><path fill="none" stroke="rgb(0,0,0)" paint-order="fill stroke markers" d=" M 810.805787738306 497.8828065044012 L 816.4370708732338 499.6402494386986" stroke-opacity="1" stroke-linecap="round" stroke-miterlimit="10" stroke-width="2" stroke-dasharray=""/><path fill="rgb(38,68,223)" stroke="none" paint-order="stroke fill markers" d=" M 852.7402378688784 553.1251542117094 L 870.1702326345272 559.5047157318202 L 865.1713213742878 559.532892164101 L 847.7545145235326 553.1174138621418 Z" fill-opacity="1"/><path fill="none" stroke="rgb(0,0,0)" paint-order="fill stroke markers" d=" M 852.7402378688784 553.1251542117094 L 870.1702326345272 559.5047157318202" stroke-opacity="1" stroke-linecap="round" stroke-miterlimit="10" stroke-width="2" stroke-dasharray=""/><path fill="none" stroke="rgb(0,0,0)" paint-order="fill stroke markers" d=" M 847.7545145235326 553.1174138621418 L 865.1713213742878 559.532892164101" stroke-opacity="1" stroke-linecap="round" stroke-miterlimit="10" stroke-width="2" stroke-dasharray=""/><path fill="rgb(255,255,255)" stroke="rgb(0,0,0)" paint-order="fill stroke markers" d=" M 764.568708986335 495.7314112078311 L 764.1365811313153 500.722487933308 L 763.7054845233797 505.70165375496435 L 774.5072629780329 514.6244001336511 L 762.8439978140159 515.6518252481164 C 772.8901414317137 519.2624541689975 770.1538838754486 549.5401429956993 760.2562478301115 545.5403375622118 C 782.8326933320002 554.66386857241 781.8511225548358 564.9180183930112 759.3934211391024 555.505985843367 C 765.4265846728613 558.0344873362794 763.6355883279804 578.1112082718889 757.6683211951968 575.4308901954773 C 773.0036465905072 582.3190600980588 772.053188848179 592.4799665603999 756.805133477319 585.4007083369652 C 783.641657671586 597.8601780837593 781.6020569242187 618.4368490636972 755.0804944336414 605.3202892914414 C 773.780283304269 614.5684962376685 771.8086236999676 591.0386532985876 752.8730825106104 582.2832712171221 C 767.4507777795886 589.0236802009864 765.0267690840258 558.610074136885 750.2201046203263 552.3887398680672 C 755.2824667603488 554.515798743488 753.5648488715219 534.4719775278437 748.4522961640823 532.468556775757 C 759.574435086255 536.8269126107684 758.74307165004 526.722150562083 747.5678072934606 522.5018773068005 C 760.4920447605292 527.3826400330154 758.0176129773666 497.02075215298663 744.917249115475 492.6346119841328 C 758.8532858890361 497.300544269033 755.5742522153126 495.4012540649938 741.6333096121671 490.75 C 753.3547889924953 494.6607526777415 733.3262515812662 494.7683792668027 721.6412315368652 490.75 C 743.7222313871164 498.3434685307655 733.6694142075413 498.44937220811 711.6251182034612 490.75 L 719.4465697593886 495.6260083421799 L 708.0041045473772 496.3200904067635 L 708.6744174851556 501.27126551535366 L 709.3445112496265 506.2208217301959 L 710.0168197036037 511.1867364470727 L 710.6875 516.140625 L 711.3573911467038 521.0886846063347 L 718.1385832706154 528.5047422490056 L 712.6987979886399 530.9968033251807 C 725.4485903805634 536.2421060202734 729.2729166155752 566.4340744110085 716.7236299910583 560.7256760703167 C 743.3645823045246 572.8440675399588 745.1594749279999 588.1874977668901 718.7372849699823 575.5992639828237 C 743.2002821511473 587.2540862388427 746.2098673310524 612.7141233250909 722.0901275141396 600.36457822944 C 733.0863162456293 605.9947355052079 736.2802061581043 631.0606045746559 725.443008441478 625.1301759881899 C 732.8605251948549 629.1892560700572 734.1586782354763 639.1812264287439 726.7850469229161 635.0429602260847 C 750.4611713712562 648.3305930709253 754.3139237751566 666.9649885773308 730.882766231487 653.25 C 752.3515149096311 665.8163293561817 772.5211548900985 665.5377680747728 750.891763797561 653.25 C 776.6609524715068 667.8896083248851 781.7032671075527 667.8086506913199 755.8882539007463 653.25 C 776.2582910490665 664.7378986516812 796.3930853735326 664.4881077284007 775.8841808796278 653.25 C 782.7535963361668 657.014181112388 788.1255706418708 651.6149592412603 781.2225892753922 647.9126928522164 C 785.5077743055792 650.2109601755409 786.8764912338767 640.2469998304742 782.5647603014368 637.9989295916603 C 797.4575917806765 645.7638230288314 800.3187185182302 625.6008430265001 785.2465869449079 618.1899827932939 C 795.5762323732446 623.2689962132323 796.9777283686527 613.2364210399181 786.5880649966493 608.281338092931 C 795.6430018980503 612.5998575501717 797.7339188621565 597.5580886733728 788.6021640329636 593.4044702110641 C 804.1531318468852 600.4778956617979 805.577595384649 590.393894813558 789.9416866800748 583.5102688403567 C 808.9263505504125 591.8681665346635 810.3704240189265 581.7157786122609 791.2844971191525 573.5917826426232 C 795.9497192625502 575.5775518478315 799.3636634362778 550.6539148604845 794.6390337479606 548.8139552707453 C 797.5687295040518 549.9548958644108 798.2464873502803 544.9827360683374 795.3096989881624 543.860177928346 C 812.4052539007862 550.3947837489015 815.9566855175678 525.0813011645278 798.6631766320579 519.0901726041177 C 816.5271071213051 525.2789168817458 820.0703575397703 499.92793379644354 802.0174521013978 494.314274251039 C 825.4118391038048 501.5888996210807 809.4880331648793 498.06585633371014 786.1065070470795 490.75 L 764.568708986335 495.7314112078311 L 764.568708986335 495.7314112078311 Z" fill-opacity="1" stroke-opacity="1" stroke-linecap="round" stroke-miterlimit="10" stroke-width="2" stroke-dasharray=""/><path fill="rgb(255,255,255)" stroke="none" paint-order="stroke fill markers" d=" M 704.2405522878556 494.9652197893798 L 718.9285360767661 500.2528619667553 L 719.5729626721798 505.2752147145543 L 704.9197832734093 499.8918736435549 Z" fill-opacity="1"/><path fill="none" stroke="rgb(0,0,0)" paint-order="fill stroke markers" d=" M 704.2405522878556 494.9652197893798 L 718.9285360767661 500.2528619667553" stroke-opacity="1" stroke-linecap="round" stroke-miterlimit="10" stroke-width="2" stroke-dasharray=""/><path fill="none" stroke="rgb(0,0,0)" paint-order="fill stroke markers" d=" M 704.9197832734093 499.8918736435549 L 719.5729626721798 505.2752147145543" stroke-opacity="1" stroke-linecap="round" stroke-miterlimit="10" stroke-width="2" stroke-dasharray=""/><path fill="rgb(255,255,255)" stroke="rgb(0,0,0)" paint-order="fill stroke markers" d=" M 690.9571727511939 482.67024765652604 L 695.6273915376514 480.93865411169827 L 699.7276483941823 478.0801336225122 L 702.8455798013601 474.21434396202676 L 704.5533541555051 469.543190023629 L 704.5060363048979 464.5634523811459 L 702.7950530827511 459.87909990618937 C 714.9784099704979 463.5985258480014 688.5731567899111 456.8109943364297 676.3968343453016 453.0686039084103 C 682.5327894400914 454.9544885601973 673.5973951306989 466.5296814330854 667.5035380668414 464.51190742928884 C 689.032812362384 471.64059612988206 697.707122052666 488.4699198033632 676.3242263793945 480.91349029541016 L 690.9571727511939 482.67024765652604 M 667.25 495.74666995892767 L 667.25 500.74665048980205 L 667.25 505.746337890625 L 667.25 510.7571153783938 C 692.5206250855364 521.0881756293945 692.3706665568128 531.4349067296332 667.25 520.744377749972 C 684.8961586815223 528.2540021597333 684.8425265376269 533.3819949763576 667.25 525.7475739104195 C 673.3895793523063 528.4118946856645 673.3323475433574 543.5406797213533 667.25 540.7481740045314 C 675.8996728113739 544.7193809443222 675.7593122166855 570.0206763514523 667.25 565.7570007186878 C 686.918418888732 575.6120578861115 686.7855751040754 585.8637389318924 667.25 575.7479019072634 C 669.8539916031924 577.0962909119927 669.8088165448892 602.1756182229734 667.25 600.7433532100749 C 683.2976577073123 609.7258254858081 682.9497471562905 640.318019222288 667.25 630.7404378311476 C 679.7681598234058 638.3771018730862 679.6744877619308 648.5400650044605 667.25 640.7519287121631 C 692.291308962372 656.4487631308864 704.704904668488 669.0838190501048 679.7499865238351 653.25 C 687.8884475628943 658.4138285764685 707.963495523979 658.295102089831 699.750906495261 653.25 L 717.7977190582897 661.1945880987873 L 704.75 648.2533300410723 C 711.5943978867936 652.3708045759302 711.6892629942473 632.2042926330627 704.75 628.2487891158582 C 707.1778127788339 629.6326856469095 707.2185908964311 604.5615982977341 704.75 603.2518259954686 C 730.9747265328721 617.1660069546955 731.3972501892929 591.3298159622038 704.75 578.2429992813122 C 716.9619801183859 584.2404640847997 717.1122278555758 563.9342213070211 704.75 558.252904124558 C 714.5475094453127 562.7555519811815 714.662857065459 542.4859167813114 704.75 538.2432414635987 C 711.5108407327596 541.1368625371653 711.5864100216528 520.9572098994396 704.75 518.2469500692805 C 729.8411012236306 528.1941889747113 729.9749869232579 517.8587451245652 704.75 508.2560914716596 C 732.4081452396953 518.7850003756191 732.4803430610538 513.5853337167505 704.75 503.24807128783686 C 727.7790534288434 511.8327962679533 715.3731294932326 499.07804361623954 692.2500134761649 490.75 L 711.0758298258413 499.4011829344865 L 682.2461472841824 490.75 L 667.25 495.74666995892767 Z" fill-opacity="1" stroke-opacity="1" stroke-linecap="round" stroke-miterlimit="10" stroke-width="2" stroke-dasharray=""/><path fill="rgb(255,255,255)" stroke="none" paint-order="stroke fill markers" d=" M 677.241556235437 450.168534559816 L 690.3577372210741 454.1314295897758 L 685.6704831217307 455.9188581269233 L 672.5733504155896 451.8934568370895 Z" fill-opacity="1"/><path fill="none" stroke="rgb(0,0,0)" paint-order="fill stroke markers" d=" M 677.241556235437 450.168534559816 L 690.3577372210741 454.1314295897758" stroke-opacity="1" stroke-linecap="round" stroke-miterlimit="10" stroke-width="2" stroke-dasharray=""/><path fill="none" stroke="rgb(0,0,0)" paint-order="fill stroke markers" d=" M 672.5733504155896 451.8934568370895 L 685.6704831217307 455.9188581269233" stroke-opacity="1" stroke-linecap="round" stroke-miterlimit="10" stroke-width="2" stroke-dasharray=""/><path fill="rgb(38,68,223)" stroke="none" paint-order="stroke fill markers" d=" M 663.5583578493951 514.2000597784422 L 676.6467887587597 519.6602154919547 L 676.6186102822599 524.73134997044 L 663.5694281048044 519.1780474769147 Z" fill-opacity="1"/><path fill="none" stroke="rgb(0,0,0)" paint-order="fill stroke markers" d=" M 663.5583578493951 514.2000597784422 L 676.6467887587597 519.6602154919547" stroke-opacity="1" stroke-linecap="round" stroke-miterlimit="10" stroke-width="2" stroke-dasharray=""/><path fill="none" stroke="rgb(0,0,0)" paint-order="fill stroke markers" d=" M 663.5694281048044 519.1780474769147 L 676.6186102822599 524.73134997044" stroke-opacity="1" stroke-linecap="round" stroke-miterlimit="10" stroke-width="2" stroke-dasharray=""/><path fill="rgb(255,255,255)" stroke="rgb(0,0,0)" paint-order="fill stroke markers" d=" M 628.5 610.7533300410723 L 628.5 605.753349510198 L 628.5 600.753662109375 L 628.5 595.7428846216062 C 643.9900147356461 604.8769332799515 644.1712273607559 589.5719518370936 628.5 580.7524260895805 C 640.8219051238915 587.6870047921215 641.0551809408898 562.2486402325073 628.5 555.7459362406719 C 642.2781912952408 562.8820739003085 642.3784668914004 552.6839293247208 628.5 545.7448247131852 C 653.196724146578 558.0929575261498 653.6309011272366 532.1915393609767 628.5 520.752904124558 C 646.4073813220785 528.9036664846357 646.6448054565009 508.35082109252943 628.5 500.7432414635987 C 645.9262527122754 508.0495532044616 646.1959774694637 482.38593796916655 628.5 475.7595621688524 C 650.7119086275255 484.07695825856865 650.840876794536 473.71256666683814 628.5 465.74807128783686 C 645.6717946299287 471.8697951681044 628.2329345677978 459.19416812023843 610.9988723816205 453.25 C 618.1089317980492 455.7023172807183 608.095758471043 455.7435386116315 601.0000506034121 453.25 L 595.999093504739 453.25 L 591 453.2591314315796 L 591 458.2437456380576 L 591 463.25359748941264 L 591 468.2415858230088 L 591 473.2501276563853 C 597.9649305720507 476.0126619248532 597.8217392524087 506.350143902129 591 503.25083316745076 C 610.4490091548518 512.087072815749 610.2345827161387 527.5471175827389 591 518.2533607555088 C 596.232997042169 520.7818378587176 596.1731668632839 535.8961682619214 591 533.2474328826465 C 596.124941448696 535.871476160318 596.1048743392455 540.9121166682891 591 538.2492449184356 C 613.3012489639619 549.8823159611524 613.0349949993124 565.3798409972177 591 553.25 C 615.9464635942626 566.982548468957 615.3302601132216 598.0439067321425 591 583.2470362476415 C 611.9902156731573 596.0126006646315 611.6299187644861 616.5891533640523 591 603.2491668325492 C 609.9510756693268 615.503557994841 609.7011739525578 630.8878490506776 591 618.2553724692953 C 598.2052008607003 623.1224215309134 598.1409299257756 633.2094860687481 591 628.2486186237948 C 593.3815171248918 629.903079723018 593.3493288042653 644.9462611854323 591 643.2464025105874 C 594.4710760359775 645.7579022632359 614.4858356145428 655.7425364383831 611.0011172674704 653.25 C 626.6803946755584 664.4650154975964 656.9517197438904 664.0640761294493 640.9932715073737 653.25 C 654.591531132743 662.4647189148546 659.6285791854468 662.4095817227324 645.9931190838106 653.25 C 655.6653836191441 659.7473163204551 672.0708421809516 650.7757200057454 662.25 644.5052431924269 C 687.5063221080411 660.6310681726253 687.988212311729 634.8450056792395 662.25 619.5000239355722 C 667.7230772471195 622.7630427273031 661.4738770328687 619.0128515765367 656.0007000964251 615.75 C 680.9051281224752 630.5968527860792 655.6069998999842 631.077423532455 630.9954241517116 615.75 L 628.5 610.7533300410723 L 628.5 610.7533300410723 Z" fill-opacity="1" stroke-opacity="1" stroke-linecap="round" stroke-miterlimit="10" stroke-width="2" stroke-dasharray=""/><path fill="rgb(255,255,255)" stroke="none" paint-order="stroke fill markers" d=" M 597.2262852421409 451.9238420161724 L 604.0108939434157 454.308055695348 L 599.0067743328956 454.31701242187785 L 592.2292920088421 451.91261573153656 Z" fill-opacity="1"/><path fill="none" stroke="rgb(0,0,0)" paint-order="fill stroke markers" d=" M 597.2262852421409 451.9238420161724 L 604.0108939434157 454.308055695348" stroke-opacity="1" stroke-linecap="round" stroke-miterlimit="10" stroke-width="2" stroke-dasharray=""/><path fill="none" stroke="rgb(0,0,0)" paint-order="fill stroke markers" d=" M 592.2292920088421 451.91261573153656 L 599.0067743328956 454.31701242187785" stroke-opacity="1" stroke-linecap="round" stroke-miterlimit="10" stroke-width="2" stroke-dasharray=""/><path fill="rgb(255,255,255)" stroke="none" paint-order="stroke fill markers" d=" M 587.3451384738864 496.63311747582037 L 600.0511043231377 502.2838156834737 L 600.01866752575 507.34827108479436 L 587.3582365444167 501.59627614710405 Z" fill-opacity="1"/><path fill="none" stroke="rgb(0,0,0)" paint-order="fill stroke markers" d=" M 587.3451384738864 496.63311747582037 L 600.0511043231377 502.2838156834737" stroke-opacity="1" stroke-linecap="round" stroke-miterlimit="10" stroke-width="2" stroke-dasharray=""/><path fill="none" stroke="rgb(0,0,0)" paint-order="fill stroke markers" d=" M 587.3582365444167 501.59627614710405 L 600.01866752575 507.34827108479436" stroke-opacity="1" stroke-linecap="round" stroke-miterlimit="10" stroke-width="2" stroke-dasharray=""/><path fill="rgb(255,255,255)" stroke="rgb(0,0,0)" paint-order="fill stroke markers" d=" M 570.9531590705737 655.2025488731451 L 575.6454478101805 653.5198814473115 L 579.7702813938959 650.7026483021327 L 582.9830513605848 646.9031674559228 L 585.0692259045318 642.3689398183487 L 585.9550613984466 637.4548719115555 L 588.8107606132814 634.6504423065733 L 584.4573937086388 627.6499828537926 C 592.399746523749 633.2286529473304 586.4625384367166 625.3267774748606 578.4931438406929 619.7868065340444 C 581.1213459383707 621.613816487221 566.9699961087563 617.6562687010963 564.3563987986417 615.8084265174111 C 573.9189838074337 622.5692798041587 555.2521331342487 642.9257888149525 546.0012594750151 635.7443192051724 C 563.329894367861 649.1965691705298 581.5083047746637 669.2631620989706 564.2774776592851 655.6858570165932 L 570.9531590705737 655.2025488731451 L 570.9531590705737 655.2025488731451 Z" fill-opacity="1" stroke-opacity="1" stroke-linecap="round" stroke-miterlimit="10" stroke-width="2" stroke-dasharray=""/><path fill="rgb(255,255,255)" stroke="none" paint-order="stroke fill markers" d=" M 578.7321578580083 621.0307204373988 L 587.6726053700984 627.264702320861 L 584.1581100492903 623.7248406968896 L 575.208758969829 617.5036473148836 Z" fill-opacity="1"/><path fill="none" stroke="rgb(0,0,0)" paint-order="fill stroke markers" d=" M 578.7321578580083 621.0307204373988 L 587.6726053700984 627.264702320861" stroke-opacity="1" stroke-linecap="round" stroke-miterlimit="10" stroke-width="2" stroke-dasharray=""/><path fill="none" stroke="rgb(0,0,0)" paint-order="fill stroke markers" d=" M 575.208758969829 617.5036473148836 L 584.1581100492903 623.7248406968896" stroke-opacity="1" stroke-linecap="round" stroke-miterlimit="10" stroke-width="2" stroke-dasharray=""/><g><path fill="rgb(255,255,255)" stroke="rgb(0,0,0)" paint-order="fill stroke markers" d=" M 212.3185791824686 618.5147981590172 C 214.17486513454543 623.3483322847064 213.21314662301828 628.2139421347302 210.1705207656567 629.3824419300307 C 207.1278949082951 630.5509417253313 203.15654221882698 627.5798443651095 201.30025626675015 622.7463102394203 C 199.44397031467332 617.9127761137311 200.40568882620047 613.0471662637073 203.44831468356205 611.8786664684068 C 206.49094054092365 610.7101666731062 210.46229323039177 613.681264033328 212.3185791824686 618.5147981590172" fill-opacity="1" stroke-opacity="1" stroke-linecap="round" stroke-miterlimit="10" stroke-width="2" stroke-dasharray=""/></g><g><path fill="rgb(255,255,255)" stroke="rgb(0,0,0)" paint-order="fill stroke markers" d=" M -247.7196515127844 432.4555081679434 C -251.62950910281825 434.4180618149983 -255.78170331959623 434.05140446439316 -256.9938368681485 431.6365560539797 C -258.2059704167007 429.2217076435662 -256.01903298154633 425.6731221392677 -252.10917539151248 423.7105684922129 C -248.19931780147863 421.74801484515797 -244.04712358470064 422.1146721957631 -242.8349900361484 424.52952060617656 C -241.62285648759618 426.94436901659003 -243.80979392275057 430.49295452088853 -247.7196515127844 432.4555081679434" fill-opacity="1" stroke-opacity="1" stroke-linecap="round" stroke-miterlimit="10" stroke-width="2" stroke-dasharray=""/></g><g><path fill="rgb(255,255,255)" stroke="rgb(0,0,0)" paint-order="fill stroke markers" d=" M -184.82174486232586 -136.4454779904358 C -187.88378589407188 -141.44473193277116 -187.5298028612769 -147.23463472067797 -184.03110162951913 -149.37758781988742 C -180.53240039776136 -151.52054091909687 -175.2138679467639 -149.2050515866652 -172.1518269150179 -144.20579764432983 C -169.08978588327187 -139.20654370199446 -169.44376891606686 -133.41664091408765 -172.94247014782462 -131.2736878148782 C -176.44117137958239 -129.13073471566875 -181.75970383057984 -131.44622404810042 -184.82174486232586 -136.4454779904358" fill-opacity="1" stroke-opacity="1" stroke-linecap="round" stroke-miterlimit="10" stroke-width="2" stroke-dasharray=""/></g><g><path fill="rgb(255,255,255)" stroke="rgb(0,0,0)" paint-order="fill stroke markers" d=" M 167.35932226195206 -66.74418548703724 C 169.31224385274118 -73.00765961697954 174.03757322656327 -77.10549376744446 177.91364081981044 -75.89695423600071 C 181.7897084130576 -74.68841470455696 183.3487262819621 -68.63115082552224 181.39580469117294 -62.36767669557994 C 179.44288310038382 -56.10420256563765 174.71755372656173 -52.00636841517273 170.84148613331456 -53.21490794661648 C 166.9654185400674 -54.423447478060226 165.4064006711629 -60.480711357094954 167.35932226195206 -66.74418548703724" fill-opacity="1" stroke-opacity="1" stroke-linecap="round" stroke-miterlimit="10" stroke-width="2" stroke-dasharray=""/></g><g><path fill="rgb(255,255,255)" stroke="rgb(0,0,0)" paint-order="fill stroke markers" d=" M 737.079941918222 296.45343840278235 C 739.9477813986555 296.60188482063705 742.1564939003327 298.96575672309706 742.0132393671933 301.73329407310854 C 741.8699848340539 304.50083142312 739.4290108434616 306.6240241283536 736.561171363028 306.4755777104989 C 733.6933318825945 306.3271312926442 731.4846193809173 303.9632593901842 731.6278739140567 301.1957220401727 C 731.7711284471961 298.42818469016123 734.2121024377884 296.30499198492765 737.079941918222 296.45343840278235" fill-opacity="1" stroke-opacity="1" stroke-linecap="round" stroke-miterlimit="10" stroke-width="2" stroke-dasharray=""/></g><g><path fill="rgb(255,255,255)" stroke="rgb(0,0,0)" paint-order="fill stroke markers" d=" M 89.21202772224171 323.72913568251647 C 90.15826090966931 328.2265859515679 88.23432268611225 332.43866047943897 84.91479142596272 333.13706745609227 C 81.5952601658132 333.83547443274557 78.13717482553744 330.75574134434754 77.19094163810985 326.25829107529603 C 76.24470845068225 321.7608408062446 78.16864667423931 317.54876627837353 81.48817793438884 316.85035930172023 C 84.80770919453836 316.15195232506693 88.26579453481412 319.23168541346496 89.21202772224171 323.72913568251647" fill-opacity="1" stroke-opacity="1" stroke-linecap="round" stroke-miterlimit="10" stroke-width="2" stroke-dasharray=""/></g><g><path fill="rgb(255,255,255)" stroke="rgb(0,0,0)" paint-order="fill stroke markers" d=" M -165.6011395087708 384.586234722595 C -170.111352638329 386.7203582123502 -174.74251696405682 386.39004336072765 -175.94513454503326 383.84845585204056 C -177.1477521260097 381.30686834335347 -174.46641615008429 377.5164556616914 -169.95620302052606 375.38233217193624 C -165.44598989096787 373.24820868218103 -160.81482556524006 373.5785235338036 -159.61220798426362 376.1201110424907 C -158.40959040328718 378.6616985511778 -161.0909263792126 382.45211123283985 -165.6011395087708 384.586234722595" fill-opacity="1" stroke-opacity="1" stroke-linecap="round" stroke-miterlimit="10" stroke-width="2" stroke-dasharray=""/></g><g><path fill="rgb(255,255,255)" stroke="rgb(0,0,0)" paint-order="fill stroke markers" d=" M -257.47422498074985 -207.2146592185429 C -260.01419273389376 -210.96067033717642 -259.9462625520973 -215.43960317248832 -257.3224986730886 -217.21863570429164 C -254.6987347940799 -218.99766823609494 -250.51270322161287 -217.40311703680936 -247.97273546846893 -213.65710591817586 C -245.43276771532499 -209.91109479954233 -245.50069789712146 -205.43216196423043 -248.12446177613015 -203.6531294324271 C -250.74822565513884 -201.8740969006238 -254.93425722760588 -203.4686480999094 -257.47422498074985 -207.2146592185429" fill-opacity="1" stroke-opacity="1" stroke-linecap="round" stroke-miterlimit="10" stroke-width="2" stroke-dasharray=""/></g></g></svg>